<svg height="2330" viewBox="0 0 3720 2330" width="3720" xmlns="http://www.w3.org/2000/svg" xmlns:xlink="http://www.w3.org/1999/xlink"><defs><linearGradient id="a" x1="31.61397%" x2="24.274183%" y1="0%" y2="97.942119%"><stop offset="0" stop-color="#ffb003"/><stop offset="1" stop-color="#ff086f"/><stop offset="1" stop-color="#ff0a6e"/></linearGradient><path id="b" d="m3209 1338 142-911 160-34 182-393-784 254 79 75-225 49-161 207 521-110-183 1031z"/><filter id="c" height="103.2%" width="103.8%" x="-1.1%" y="-.8%"><feOffset dx="17" dy="23" in="SourceAlpha" result="shadowOffsetOuter1"/><feGaussianBlur in="shadowOffsetOuter1" result="shadowBlurOuter1" stdDeviation=".5"/><feColorMatrix in="shadowBlurOuter1" type="matrix" values="0 0 0 0 0   0 0 0 0 0   0 0 0 0 0  0 0 0 1 0"/></filter><linearGradient id="d" x1="59.55346%" x2="50%" y1="0%" y2="100%"><stop offset="0" stop-color="#ffb102"/><stop offset="1" stop-color="#ff086f"/><stop offset="1" stop-color="#ff0b6c"/></linearGradient><path id="e" d="m2214 729 694 783 88-491-109 79-430-380 288-366 185-40-237-191z"/><filter id="f" height="103.5%" width="105.4%" x="-1.5%" y="-.9%"><feOffset dx="17" dy="23" in="SourceAlpha" result="shadowOffsetOuter1"/><feGaussianBlur in="shadowOffsetOuter1" result="shadowBlurOuter1" stdDeviation=".5"/><feColorMatrix in="shadowBlurOuter1" type="matrix" values="0 0 0 0 0   0 0 0 0 0   0 0 0 0 0  0 0 0 1 0"/></filter><linearGradient id="g" x1="51.332535%" x2="71.990635%" y1="0%" y2="105.163761%"><stop offset="0" stop-color="#ffb200"/><stop offset="1" stop-color="#ff086f"/><stop offset="1" stop-color="#7d1a24"/></linearGradient><path id="h" d="m1922 1806 834-425-219-244-389 404 10-349 298-148-178-202-120 122 8-229 253-325-619 208 174 117z"/><filter id="i" height="103.4%" width="104.4%" x="-1.3%" y="-.9%"><feOffset dx="17" dy="23" in="SourceAlpha" result="shadowOffsetOuter1"/><feGaussianBlur in="shadowOffsetOuter1" result="shadowBlurOuter1" stdDeviation=".5"/><feColorMatrix in="shadowBlurOuter1" type="matrix" values="0 0 0 0 0   0 0 0 0 0   0 0 0 0 0  0 0 0 1 0"/></filter><linearGradient id="j"><stop offset="0" stop-color="#ffa907"/><stop offset="1" stop-color="#ff086f"/><stop offset="1" stop-color="#ff3651"/></linearGradient><linearGradient id="k" x1="42.982943%" x2="57.861646%" xlink:href="#j" y1="0%" y2="100%"/><path id="l" d="m1259 1746 137-896 304-91-334 444 521 609 29-492-107 72-205-197 340-436-268-174-578 170 100 129-179 1012z"/><filter id="m" height="103.7%" width="104.5%" x="-1.3%" y="-.9%"><feOffset dx="17" dy="23" in="SourceAlpha" result="shadowOffsetOuter1"/><feGaussianBlur in="shadowOffsetOuter1" result="shadowBlurOuter1" stdDeviation=".5"/><feColorMatrix in="shadowBlurOuter1" type="matrix" values="0 0 0 0 0   0 0 0 0 0   0 0 0 0 0  0 0 0 1 0"/></filter><linearGradient id="n" x1="48.780676%" x2="51.366085%" xlink:href="#j" y1="0%" y2="100%"/><path id="o" d="m981 1916 171-1029-171-230-244 1411z"/><filter id="p" height="103.4%" width="110.1%" x="-2.9%" y="-.9%"><feOffset dx="17" dy="23" in="SourceAlpha" result="shadowOffsetOuter1"/><feGaussianBlur in="shadowOffsetOuter1" result="shadowBlurOuter1" stdDeviation=".5"/><feColorMatrix in="shadowBlurOuter1" type="matrix" values="0 0 0 0 0   0 0 0 0 0   0 0 0 0 0  0 0 0 1 0"/></filter><linearGradient id="q" x1="32.336755%" x2="33.133923%" y1="3.390625%" y2="100%"><stop offset="0" stop-color="#ff9016"/><stop offset="1" stop-color="#ff086f"/><stop offset="1" stop-color="#ff096e"/></linearGradient><path id="r" d="m134 2297.38233 645-715.38233 119-668-360-21-538 305 134 101zm200-520.38233v-547l321-169-64 420z"/><filter id="s" height="103.4%" width="104.7%" x="-1.3%" y="-.9%"><feOffset dx="17" dy="23" in="SourceAlpha" result="shadowOffsetOuter1"/><feGaussianBlur in="shadowOffsetOuter1" result="shadowBlurOuter1" stdDeviation=".5"/><feColorMatrix in="shadowBlurOuter1" type="matrix" values="0 0 0 0 0   0 0 0 0 0   0 0 0 0 0  0 0 0 1 0"/></filter></defs><g fill="none" transform="translate(5 2)"><g><use fill="#000" filter="url(#c)" xlink:href="#b"/><use fill="url(#a)" xlink:href="#b"/></g><g><use fill="#000" filter="url(#f)" xlink:href="#e"/><use fill="url(#d)" xlink:href="#e"/></g><g><use fill="#000" filter="url(#i)" xlink:href="#h"/><use fill="url(#g)" xlink:href="#h"/></g><g><use fill="#000" filter="url(#m)" xlink:href="#l"/><use fill="url(#k)" xlink:href="#l"/></g><g><use fill="#000" filter="url(#p)" xlink:href="#o"/><use fill="url(#n)" xlink:href="#o"/></g><g><use fill="#000" filter="url(#s)" xlink:href="#r"/><use fill="url(#q)" xlink:href="#r"/></g></g></svg>